<?xml version="1.0" encoding="utf-8"?>
<!-- Generator: Adobe Illustrator 26.0.3, SVG Export Plug-In . SVG Version: 6.00 Build 0)  -->
<svg version="1.1" id="레이어_1" xmlns="http://www.w3.org/2000/svg" x="0px"
  y="0px" viewBox="0 0 275 42" style="enable-background:new 0 0 275 42;" xml:space="preserve">
<style type="text/css">
	.st0{fill:#808284;}
	.st1{fill:url(#SVGID_1_);}
	.st2{fill:#69C39B;}
</style>
  <g>
	<path class="st0" d="M14.3,13.8c3.7,0,7,1.4,9.7,4.1s4,6,4,9.9s-1.3,7.1-4,9.8s-5.9,4-9.7,4c-4,0-7.3-1.4-9.9-4.1
		c-2.6-2.8-3.9-6-3.9-9.8c0-2.5,0.6-4.9,1.8-7s2.9-3.8,5.1-5.1C9.6,14.4,11.9,13.8,14.3,13.8z M14.3,18.8c-2.5,0-4.5,0.9-6.2,2.6
		s-2.5,3.9-2.5,6.5c0,2.9,1.1,5.3,3.2,7c1.6,1.3,3.5,2,5.6,2c2.4,0,4.4-0.9,6.1-2.6c1.7-1.7,2.5-3.9,2.5-6.4s-0.8-4.7-2.5-6.4
		C18.8,19.6,16.7,18.8,14.3,18.8z"/>
    <path class="st0" d="M30.7,14.5h5.1v10h8.9v-10h5.1V41h-5.1V29.4h-8.9V41h-5.1V14.5z"/>
    <path class="st0" d="M56.6,14.5h4.9L67.7,33l6.2-18.5h4.9L83.2,41h-4.9l-2.8-16.7L69.9,41h-4.4l-5.6-16.7L57,41h-4.9L56.6,14.5z"/>
    <path class="st0" d="M80.8,14.5h5.4l5,9.6l5-9.6h5.4l-7.8,15V41h-5.1V29.5L80.8,14.5z"/>
    <path class="st0" d="M126.1,19.1l-3.5,3.4c-2.4-2.5-5.1-3.8-8.1-3.8c-2.5,0-4.7,0.9-6.4,2.6c-1.7,1.7-2.6,3.9-2.6,6.4
		c0,1.8,0.4,3.3,1.2,4.7c0.8,1.4,1.9,2.4,3.3,3.2s3,1.2,4.7,1.2c1.5,0,2.8-0.3,4-0.8s2.5-1.5,4-3l3.4,3.6c-2,1.9-3.8,3.2-5.5,4
		c-1.7,0.7-3.7,1.1-6,1.1c-4.1,0-7.5-1.3-10.1-3.9c-2.6-2.6-3.9-6-3.9-10c0-2.6,0.6-5,1.8-7c1.2-2.1,2.9-3.7,5.1-5
		c2.2-1.2,4.6-1.9,7.2-1.9c2.2,0,4.3,0.5,6.3,1.4C122.9,16.1,124.6,17.4,126.1,19.1z"/>

    <linearGradient id="SVGID_1_" gradientUnits="userSpaceOnUse" x1="139.05" y1="30.2" x2="139.05" y2="2.4" gradientTransform="matrix(1 0 0 -1 0 44)">
		<stop offset="0" style="stop-color:#69C39B"/>
      <stop offset="0.2654" style="stop-color:#64BE98"/>
      <stop offset="0.6042" style="stop-color:#52B490"/>
      <stop offset="0.9815" style="stop-color:#2AA585"/>
      <stop offset="1" style="stop-color:#27caa1"/>
	</linearGradient>
    <path class="st1" d="M139.1,13.8c3.7,0,7,1.4,9.7,4.1s4,6,4,9.9s-1.3,7.1-4,9.8s-5.9,4-9.7,4c-4,0-7.3-1.4-9.9-4.1
		c-2.6-2.8-3.9-6-3.9-9.8c0-2.5,0.6-4.9,1.8-7s2.9-3.8,5.1-5.1C134.4,14.4,136.7,13.8,139.1,13.8z M139.1,18.8
		c-2.5,0-4.5,0.9-6.2,2.6s-2.5,3.9-2.5,6.5c0,2.9,1.1,5.3,3.2,7c1.6,1.3,3.5,2,5.6,2c2.4,0,4.4-0.9,6.1-2.6c1.7-1.7,2.5-3.9,2.5-6.4
		s-0.8-4.7-2.5-6.4C143.6,19.6,141.5,18.8,139.1,18.8z"/>
    <path class="st0" d="M157.5,14.5h4.9l6.2,18.5l6.2-18.5h4.9l4.4,26.5h-4.9l-2.8-16.7L170.8,41h-4.4l-5.6-16.7L157.9,41H153
		L157.5,14.5z"/>
    <path class="st0" d="M186.6,14.5h5.4c2.9,0,5,0.3,6.3,0.8s2.3,1.4,3,2.6s1.1,2.6,1.1,4.3c0,1.8-0.5,3.4-1.5,4.6
		c-1,1.2-2.3,2.1-4,2.6c-1,0.3-2.8,0.4-5.4,0.4V41h-5L186.6,14.5L186.6,14.5z M191.5,24.8h1.6c1.3,0,2.2-0.1,2.7-0.3
		c0.5-0.2,0.9-0.5,1.2-0.9s0.4-0.9,0.4-1.5c0-1-0.4-1.8-1.2-2.2c-0.6-0.3-1.7-0.5-3.3-0.5h-1.4V24.8z"/>
    <path class="st0" d="M209.5,14.5h5.1L224.8,41h-5.2l-2.1-5.4h-10.8l-2.1,5.4h-5.3L209.5,14.5z M212,21.5l-3.6,9.1h7.1L212,21.5z"/>
    <path class="st0" d="M226,14.5h4.8l11.4,17.4V14.5h5V41h-4.8L231,23.6V41h-5V14.5z"/>
    <path class="st0" d="M261.9,29.5V41h-5.1V29.5l-7.8-15h5.4l5,9.6"/>
    <path class="st2" d="M140.3,11c0,0-0.4-9.9-10.6-10.7C129.7,0.3,131.5,9.6,140.3,11z"/>
    <path class="st2" d="M140,11.2c0,0,1.7-9.7,11.9-9.3C151.9,1.9,149,10.9,140,11.2z"/>
    <path class="st2" d="M140.3,10.5c0,0-3,3.1-2.7,5.1l0.9,0.1c0,0,0.6-4.2,2.5-5.2H140.3z"/>
    <path class="st0" d="M274.5,11.6c0,0-0.1,10.8-10.6,12.2C263.9,23.9,265.4,13.6,274.5,11.6z"/>
    <path class="st0" d="M264.2,22.9c0,0-4.5,4.6-4,7.6l1.4,0.2c0,0,0.9-6.2,3.8-7.7L264.2,22.9z"/>
</g>
</svg>
