<svg width="16" height="15" viewBox="0 0 16 15" fill="none" xmlns="http://www.w3.org/2000/svg">
<path d="M7.59964 2.72201L8 3.25714L8.40036 2.72201C9.06792 1.82972 10.1374 1.25 11.33 1.25C13.354 1.25 15 2.8988 15 4.9425C15 5.78062 14.8664 6.55374 14.6343 7.27108L14.6332 7.27434C14.0765 9.03604 12.9341 10.4603 11.695 11.5252C10.4538 12.592 9.14415 13.2733 8.30394 13.5591L8.30393 13.5591L8.29859 13.561C8.24125 13.5812 8.133 13.6 8 13.6C7.867 13.6 7.75875 13.5812 7.70141 13.561L7.70142 13.561L7.69606 13.5591C6.85584 13.2733 5.54625 12.592 4.30496 11.5252C3.06587 10.4603 1.92346 9.03604 1.36676 7.27434L1.36677 7.27433L1.36572 7.27108C1.13364 6.55374 1 5.78062 1 4.9425C1 2.8988 2.64598 1.25 4.67 1.25C5.8626 1.25 6.93208 1.82972 7.59964 2.72201Z" stroke="white"/>
</svg>
