<!-- Generator: Adobe Illustrator 26.0.3, SVG Export Plug-In . SVG Version: 6.00 Build 0)  -->
<svg version="1.1" id="레이어_1" xmlns="http://www.w3.org/2000/svg" xmlns:xlink="http://www.w3.org/1999/xlink" x="0px"
	 y="0px" viewBox="0 0 172 185" style="enable-background:new 0 0 172 185;" xml:space="preserve">
<path d="M86,0.4C38.7,0.4,0.3,36.5,0.3,81c0,32.9,13.5,48.5,32.1,62.8l0.1,0v38.6c0,1.2,1,2.2,2.2,2.2c0.5,0,0.9-0.2,1.3-0.4
	l32.5-24.5l0.7,0.3c5.6,1,11.2,1.6,16.8,1.6c47.3,0,85.7-36.1,85.7-80.5S133.3,0.4,86,0.4 M57.3,101.4c8.4,0,15.6-5.1,17.7-13h12.4
	c-3,15.2-14.7,25.1-30.2,25.1c-18,0-32.3-13.6-32.3-32.6s14.3-32.6,32.3-32.6c15.7,0,27.4,10.2,30.3,25.6H75.2
	c-1.9-8.4-9.3-13.6-17.9-13.6c-12.1,0-20.2,8.8-20.2,20.7C37,92,45.7,101.2,56.7,101.4C56.9,101.4,57.1,101.4,57.3,101.4
	 M139.1,112.3h-11.4V86.2c0-6-3.4-9.2-8.7-9.2c-5.9,0-9.7,3.7-9.7,11.1v24.2H97.9V48.4h11.4v24c2.7-4.2,7.2-6.3,13.2-6.3
	c4.9,0,8.8,1.6,11.9,4.9c3.2,3.3,4.8,7.8,4.8,13.6V112.3z"/>
</svg>