<?xml version="1.0" encoding="UTF-8"?>
<svg xmlns="http://www.w3.org/2000/svg" version="1.1" viewBox="0 0 20 20">
    <defs>
        <style>
            .cls-1 {
            fill: #777;
            stroke: #777;
            }

            .cls-1, .cls-2 {
            stroke-miterlimit: 10;
            }

            .cls-2 {
            fill: none;
            stroke: #333;
            stroke-linecap: round;
            }
        </style>
    </defs>
    <!-- Generator: Adobe Illustrator 28.7.4, SVG Export Plug-In . SVG Version: 1.2.0 Build 166)  -->
    <g>
        <g id="_레이어_1">
            <path class="cls-2" d="M10,1.5c-3.1,0-5.5,2.5-5.5,5.5v1.8c0,.6-.2,1.4-.5,1.9l-1.1,1.8c-.6,1.1-.2,2.3,1,2.7,4,1.3,8.3,1.3,12.3,0,1.1-.4,1.6-1.7,1-2.7l-1.1-1.8c-.3-.5-.5-1.3-.5-1.9v-1.8c0-3.1-2.5-5.5-5.6-5.5Z"/>
            <path class="cls-1" d="M7.4,17.9c0,.7,1.1,1.3,2.6,1.3s2.6-.6,2.6-1.3h0c-1.7.1-3.4.1-5.1,0h-.1Z"/>
        </g>
    </g>
</svg>