<?xml version="1.0" encoding="utf-8"?>
<!-- Generator: Adobe Illustrator 26.0.3, SVG Export Plug-In . SVG Version: 6.00 Build 0)  -->
<svg version="1.1" id="레이어_1" xmlns="http://www.w3.org/2000/svg" xmlns:xlink="http://www.w3.org/1999/xlink" x="0px"
	 y="0px" viewBox="0 0 142 132" style="enable-background:new 0 0 142 132;" xml:space="preserve">
<g>
	<path d="M31.2,48.8c-2.7,0-4.9,2.2-4.9,4.9c0,2.7,2.2,4.9,4.9,4.9c2.7,0,4.9-2.2,4.9-4.9C36.1,51,33.9,48.8,31.2,48.8z"/>
	<path d="M79.2,48.3c-2.9,0-5.2,2.3-5.2,5.2c0,2.9,2.3,5.2,5.2,5.2c2.9,0,5.2-2.3,5.2-5.2C84.5,50.7,82.1,48.3,79.2,48.3z"/>
	<path d="M122.7,0.5H19.3C8.8,0.5,0.4,8.9,0.4,19.4v61.4c0,10.4,8.5,18.9,18.9,18.9h36.5L68.2,129c0,0,0.9,2.5,2.9,2.5l0,0
		c2.1,0,2.9-2.5,2.9-2.5l12.4-29.3h36.2c10.4,0,18.9-8.5,18.9-18.9V19.4C141.6,8.9,133.2,0.5,122.7,0.5z M44.7,54.8
		C44.7,66,33.1,66.3,33.1,66.3c-4.5,0-7-3-7-3v2h-8.5V30.5c0,0,0,0,0,0v0c0.5,0.1,8.5,0,8.5,0v13.3c2-3.4,7.7-3.3,7.7-3.3
		C46.3,41.7,44.7,54.8,44.7,54.8z M59.6,41.6v23.9h-8.3V41.8c0-3.2-4-4.1-4-4.1v-8.3C60.6,29.9,59.6,41.6,59.6,41.6z M79.2,66.3
		c-7.7,0-13.9-5.7-13.9-12.8c0-7.1,6.2-12.8,13.9-12.8c7.7,0,13.9,5.7,13.9,12.8C93.1,60.6,86.9,66.3,79.2,66.3z M124.6,66.3
		c0,0,0.1,12.1-12.2,12.1h-3.7v-7.9h2.3c0,0,5.2,0.5,5.1-7.5c0,0-1,3.2-8.3,3.2c0,0-10.3-0.7-10.3-10.8v-3.8c0,0,0.2-10.4,11.5-11.2
		c0,0,4.5-0.5,7.2,3.2v-2.6h8.4V66.3z"/>
	<path d="M111.4,48.4c-2.8,0-5.1,2.3-5.1,5.1c0,2.8,2.3,5.1,5.1,5.1c2.8,0,5.1-2.3,5.1-5.1C116.5,50.7,114.2,48.4,111.4,48.4z"/>
</g>
</svg>
