<svg width="24" height="36" viewBox="0 0 24 36" fill="none" xmlns="http://www.w3.org/2000/svg">
<g clip-path="url(#clip0_964_3268)">
<path d="M18.8657 7.10164C21.2673 4.70336 20.5568 0.0996759 20.5568 0.0996759C20.5568 0.0996759 15.9529 -0.610808 13.5513 1.78748C12.6993 2.63942 12.2396 3.77105 12.0017 4.87696C11.7638 3.77426 11.304 2.64263 10.452 1.78748C8.05042 -0.614023 3.44332 0.0996759 3.44332 0.0996759C3.44332 0.0996759 2.73281 4.70336 5.1312 7.10486C6.75478 8.72836 9.38786 8.92768 10.9182 8.8891V14.6019H13.0755V8.8891C14.609 8.9309 17.2389 8.73158 18.8625 7.10486L18.8657 7.10164Z" fill="url(#paint0_linear_964_3268)"/>
<path style="mix-blend-mode:multiply" d="M5.07637 1.53841L4.88314 1.73163C4.55544 2.05931 4.55544 2.59059 4.88314 2.91827L9.32072 7.35565C9.64841 7.68333 10.1797 7.68333 10.5074 7.35565L10.7006 7.16243C11.0283 6.83475 11.0283 6.30347 10.7006 5.97579L6.26306 1.53841C5.93537 1.21073 5.40407 1.21073 5.07637 1.53841Z" fill="url(#paint1_linear_964_3268)"/>
<path style="mix-blend-mode:multiply" d="M13.3016 7.15901L13.4948 7.35224C13.8225 7.67992 14.3538 7.67992 14.6815 7.35224L19.1191 2.91486C19.4468 2.58718 19.4468 2.0559 19.1191 1.72822L18.9258 1.53499C18.5981 1.20731 18.0668 1.20731 17.7391 1.53499L13.3016 5.97238C12.9739 6.30006 12.9739 6.83133 13.3016 7.15901Z" fill="url(#paint2_linear_964_3268)"/>
<path d="M12.0016 35.9999C18.6299 35.9999 24.0032 30.6269 24.0032 23.9989C24.0032 17.3709 18.6299 11.9978 12.0016 11.9978C5.3733 11.9978 0 17.3709 0 23.9989C0 30.6269 5.3733 35.9999 12.0016 35.9999Z" fill="url(#paint3_linear_964_3268)"/>
<path d="M12.0017 32.2579C16.5632 32.2579 20.261 28.5603 20.261 23.999C20.261 19.4377 16.5632 15.74 12.0017 15.74C7.44014 15.74 3.74231 19.4377 3.74231 23.999C3.74231 28.5603 7.44014 32.2579 12.0017 32.2579Z" fill="url(#paint4_linear_964_3268)"/>
<path d="M15.6378 24.8284L14.9465 27.5193C14.8083 27.9725 14.4932 28.2104 13.9595 28.2104C13.4258 28.2104 13.1011 27.9725 12.9725 27.5289L12.4099 24.8284H11.5804L11.0274 27.5289C10.9085 27.9725 10.5741 28.2104 10.0404 28.2104C9.50675 28.2104 9.19168 27.9725 9.05343 27.5193L8.35256 24.8284H7.70313C7.35912 24.8284 7.1405 24.5905 7.1405 24.2272C7.1405 23.864 7.35591 23.6261 7.70313 23.6261H8.03749L7.46522 21.4271C7.38484 21.0735 7.57453 20.7263 8.02784 20.6587C8.48116 20.5912 8.82517 20.707 8.90554 21.1506L9.43923 23.6261H10.632L11.1432 21.2599C11.2428 20.8966 11.5193 20.6684 11.9919 20.6684C12.4645 20.6684 12.741 20.8966 12.8407 21.2599L13.3519 23.6261H14.5447L15.0783 21.141C15.1587 20.6973 15.4931 20.5784 15.9368 20.6587C16.419 20.7488 16.599 21.0735 16.5187 21.4271L15.9464 23.6261H16.2808C16.6248 23.6261 16.8434 23.8736 16.8434 24.2272C16.8434 24.5809 16.628 24.8284 16.2808 24.8284H15.6313H15.6378ZM10.0469 26.3748L10.3812 24.8252H9.70929L10.0437 26.3748H10.0469ZM11.8441 23.6228H12.1591L12.0016 22.8545L11.8441 23.6228ZM13.9627 26.3748L14.2875 24.8252H13.6252L13.9595 26.3748H13.9627Z" fill="url(#paint5_linear_964_3268)"/>
</g>
<defs>
<linearGradient id="paint0_linear_964_3268" x1="2.46596" y1="4.09896" x2="19.3864" y2="8.24326" gradientUnits="userSpaceOnUse">
<stop stop-color="#A0FFC7"/>
<stop offset="1" stop-color="#6AD990"/>
</linearGradient>
<linearGradient id="paint1_linear_964_3268" x1="5.4151" y1="4.44589" x2="10.2528" y2="4.44589" gradientUnits="userSpaceOnUse">
<stop stop-color="#A0FFC7"/>
<stop offset="1" stop-color="#6AD990"/>
</linearGradient>
<linearGradient id="paint2_linear_964_3268" x1="18.5848" y1="4.44475" x2="13.7517" y2="4.44475" gradientUnits="userSpaceOnUse">
<stop stop-color="#A0FFC7"/>
<stop offset="1" stop-color="#6AD990"/>
</linearGradient>
<linearGradient id="paint3_linear_964_3268" x1="3.514" y1="15.5149" x2="20.4852" y2="32.4836" gradientUnits="userSpaceOnUse">
<stop stop-color="#FFEA44"/>
<stop offset="0.99" stop-color="#E6A82A"/>
</linearGradient>
<linearGradient id="paint4_linear_964_3268" x1="6.15999" y1="29.8371" x2="17.8396" y2="18.157" gradientUnits="userSpaceOnUse">
<stop stop-color="#FFEA44"/>
<stop offset="0.99" stop-color="#EBAF34"/>
</linearGradient>
<linearGradient id="paint5_linear_964_3268" x1="7.15015" y1="24.4201" x2="16.853" y2="24.4201" gradientUnits="userSpaceOnUse">
<stop stop-color="white"/>
<stop offset="0.15" stop-color="white" stop-opacity="0.85"/>
<stop offset="0.3" stop-color="white" stop-opacity="0.72"/>
<stop offset="0.46" stop-color="white" stop-opacity="0.62"/>
<stop offset="0.62" stop-color="white" stop-opacity="0.55"/>
<stop offset="0.8" stop-color="white" stop-opacity="0.51"/>
<stop offset="1" stop-color="white" stop-opacity="0.5"/>
</linearGradient>
<clipPath id="clip0_964_3268">
<rect width="24" height="36" fill="white"/>
</clipPath>
</defs>
</svg>
